# xmcd
#
# Track frame offsets: 
#        150
#        22606
#        40312
#        58789
#        75487
#        101357
#        122295
#        148562
#        169367
#        192759
#        210555
#        233255
#
# Disc length: 3379 seconds
#
# Revision: 1
# Processed by: cddbd v1.5.2PL0 Copyright (c) Steve Scherf et al.
# Submitted via: ExactAudioCopy v1.0b3
#
DISCID=890d310c
DTITLE=Danny Berrios - Lo Mejor 
DYEAR=2000
DGENRE=Alabanza y Adoración
TTITLE0=Levanta la Luz
TTITLE1=Cubreme
TTITLE2=Sacrificio a El
TTITLE3=Dios se esta moviendo 
TTITLE4=Gracias
TTITLE5=Puedo empezar otra vez
TTITLE6=Adicto a su amor 
TTITLE7=El me salvo 
TTITLE8=Aprendiendo a confiar en Ti 
TTITLE9=Solo en Jesus 
TTITLE10=Postrado a sus Pies
TTITLE11=Lo que le agrada
EXTD=Danny Berrios 
EXTT0=
EXTT1=
EXTT2=
EXTT3=
EXTT4=
EXTT5=
EXTT6=
EXTT7=
EXTT8=
EXTT9=
EXTT10=
EXTT11=
PLAYORDER=
